<?xml version="1.0" standalone="no"?>
<!DOCTYPE svg PUBLIC "-//W3C//DTD SVG 20010904//EN"
 "http://www.w3.org/TR/2001/REC-SVG-20010904/DTD/svg10.dtd">
<svg version="1.0" xmlns="http://www.w3.org/2000/svg"
 width="171.000000pt" height="171.000000pt" viewBox="0 0 171.000000 171.000000"
 preserveAspectRatio="xMidYMid meet">
<metadata>
Created by potrace 1.11, written by Peter Selinger 2001-2013
</metadata>
<g transform="translate(0.000000,171.000000) scale(0.100000,-0.100000)"
fill="#000000" stroke="none">
<path d="M235 1681 c-3 -5 -2 -12 3 -15 5 -3 9 1 9 9 0 17 -3 19 -12 6z"/>
<path d="M235 1521 c-3 -5 -2 -12 3 -15 5 -3 9 1 9 9 0 17 -3 19 -12 6z"/>
<path d="M895 1493 c-61 -7 -121 -25 -157 -49 -21 -13 -38 -21 -38 -17 0 12
-71 -92 -86 -127 -27 -62 -29 -138 -5 -205 12 -33 23 -65 23 -72 1 -7 5 -10 9
-7 4 2 13 -5 19 -16 11 -20 10 -20 -157 -18 l-168 3 7 -90 c6 -80 12 -125 18
-132 2 -2 3 -6 4 -10 5 -18 32 -71 60 -118 30 -50 131 -155 148 -155 5 0 6 -5
3 -10 -4 -6 -3 -9 2 -8 5 2 41 -12 81 -31 l73 -33 -1 -72 c-2 -120 -3 -116 28
-116 15 0 34 -6 41 -12 11 -11 12 -10 6 0 -5 11 7 13 61 12 38 -1 107 -1 153
-1 l84 1 -6 55 c-5 54 -42 135 -60 135 -5 0 -4 7 3 15 7 9 15 13 17 11 10 -10
104 109 115 145 6 21 14 37 17 35 3 -2 5 60 3 139 l-3 144 83 0 c46 0 105 0
131 0 l49 1 -5 73 c-2 39 -7 79 -10 87 -19 51 -27 91 -21 101 4 7 3 9 -4 5
-10 -6 -23 17 -21 37 0 5 -8 15 -18 23 -10 7 -15 14 -10 14 9 0 -12 24 -88
101 -73 73 -222 151 -288 150 -10 0 -28 3 -40 7 -12 4 -35 6 -52 5z"/>
<path d="M235 721 c-3 -5 -2 -12 3 -15 5 -3 9 1 9 9 0 17 -3 19 -12 6z"/>
<path d="M390 631 c0 -6 4 -13 10 -16 6 -3 7 1 4 9 -7 18 -14 21 -14 7z"/>
<path d="M235 561 c-3 -5 -2 -12 3 -15 5 -3 9 1 9 9 0 17 -3 19 -12 6z"/>
<path d="M996 28 c3 -5 10 -6 15 -3 13 9 11 12 -6 12 -8 0 -12 -4 -9 -9z"/>
</g>
</svg>
